# AST/ASF file generated using VICON BodyLanguage
# -----------------------------------------------
:version 1.10
:name VICON
:units
  mass 1.0
  length 0.45
  angle deg
:documentation
   .ast/.asf automatically generated from VICON data using
   VICON BodyBuilder and BodyLanguage model FoxedUp or BRILLIANT.MOD
:root
   order TX TY TZ RX RY RZ
   axis XYZ
   position 0 0 0  
   orientation 0 0 0 
:bonedata
  begin
     id 1 
     name lhipjoint
     direction 0.561001 -0.76473 0.316963 
     length 2.4722 
     axis 0 0 0  XYZ
  end
  begin
     id 2 
     name lfemur
     direction 0.34202 -0.939693 0  
     length 7.59403  
     axis 0 0 20  XYZ
    dof rx ry rz
    limits (-160.0 20.0)
           (-70.0 70.0)
           (-60.0 70.0)
  end
  begin
     id 3 
     name ltibia
     direction 0.34202 -0.939693 0   
     length 7.89655   
     axis 0 0 20   XYZ
    dof rx
    limits (-10.0 170.0)
  end
  begin
     id 4 
     name lfoot
     direction 0.061296 -0.168409 0.98381   
     length 2.73287   
     axis -90 7.62852e-016 20   XYZ
    dof rx rz
    limits (-45.0 90.0)
           (-70.0 20.0)
  end
  begin
     id 5 
     name ltoes
     direction 1.53547e-011 -4.21984e-011 1   
     length 1.37057   
     axis -90 7.62852e-016 20   XYZ
    dof rx
    limits (-90.0 20.0)
  end
  begin
     id 6 
     name rhipjoint
     direction -0.559611 -0.765599 0.317323   
     length 2.46939  
     axis 0 0 0  XYZ 
  end
  begin
     id 7 
     name rfemur
     direction -0.34202 -0.939693 0   
     length 7.53712   
     axis 0 0 -20   XYZ
    dof rx ry rz
    limits (-160.0 20.0)
           (-70.0 70.0)
           (-70.0 60.0)
  end
  begin
     id 8 
     name rtibia
     direction -0.34202 -0.939693 0   
     length 8.12549   
     axis 0 0 -20   XYZ
    dof rx
    limits (-10.0 170.0)
 end
 begin
     id 9 
     name rfoot
     direction -0.066984 -0.184037 0.980634   
     length 2.67541  
     axis -90 -7.62852e-016 -20   XYZ
    dof rx rz
    limits (-45.0 90.0)
           (-20.0 70.0)
  end
  begin
     id 10 
     name rtoes
     direction -1.53549e-011 -4.21786e-011 1   
     length 1.34085   
     axis -90 -7.62852e-016 -20   XYZ
    dof rx
    limits (-90.0 20.0)
  end
  begin
     id 11 
     name lowerback
     direction -0.0522728 0.992594 -0.109658   
     length 2.05633   
     axis 0 0 0   XYZ
    dof rx ry rz
    limits (-20.0 45.0)
           (-30.0 30.0)
           (-30.0 30.0)
  end
  begin
     id 12 
     name upperback
     direction 0.00589338 0.999977 0.00335704   
     length 2.05845   
     axis 0 0 0   XYZ
    dof rx ry rz
    limits (-20.0 45.0)
           (-30.0 30.0)
           (-30.0 30.0)
  end
  begin
     id 13 
     name thorax
     direction 0.0292928 0.998059 0.0549487   
     length 2.09281   
     axis 0 0 0   XYZ
    dof rx ry rz
    limits (-20.0 45.0)
           (-30.0 30.0)
           (-30.0 30.0)
  end
  begin
     id 14 
     name lowerneck
     direction 0.0356368 0.980775 0.191858   
     length 1.84767   
     axis 0 0 0   XYZ
    dof rx ry rz
    limits (-20.0 45.0)
           (-30.0 30.0)
           (-30.0 30.0)
  end
  begin
     id 15 
     name upperneck
     direction -0.0227605 0.98931 -0.14404   
     length 1.89582   
     axis 0 0 0   XYZ
    dof rx ry rz
    limits (-20.0 45.0)
           (-30.0 30.0)
           (-30.0 30.0)
  end
  begin
     id 16
     name head
     direction -0.00932985 0.997511 -0.0698904  
     length 1.90213  
     axis 0 0 0   XYZ
    dof rx ry rz
    limits (-20.0 45.0)
           (-30.0 30.0)
           (-30.0 30.0)
  end
  begin
     id 17 
     name lclavicle
     direction 0.873442 0.479511 0.0846686  
     length 3.41193  
     axis 0 0 0   XYZ
    dof ry rz
    limits (-20.0 10.0)
           (0.0 20.0)
  end
  begin
     id 18 
     name lhumerus
     direction 1 -4.4897e-011 -5.62117e-018   
     length 5.59864   
     axis 180 -30 -90   XYZ
    dof rx ry rz
    limits (-60.0 90.0)
           (-90.0 90.0)
           (-90.0 90.0)
  end
  begin
     id 19
     name lradius
     direction 1 -4.48966e-011 -6.26295e-027   
     length 3.59542   
     axis 180 -30 -90   XYZ
    dof rx
    limits (-10.0 170.0)
  end
  begin
     id 20
     name lwrist
     direction 1 -4.48947e-011 -1.74096e-026   
     length 1.79771   
     axis 1.04567e-014 90 90   XYZ
    dof ry
    limits (-180.0 0.0)
 end
  begin
     id 21 
     name lhand
     direction 1 -4.49085e-011 -3.48469e-026   
     length 0.572014   
     axis 2.22196e-014 90 90   XYZ
    dof rx rz
    limits (-90.0 90.0)
           (-45.0 45.0)
  end
  begin
     id 22 
     name lfingers
     direction 1 -4.48884e-011 -6.96135e-026   
     length 0.461173   
     axis 4.44383e-014 90 90   XYZ
    dof rx
    limits (0.0 90.0)
  end
  begin
     id 23
     name lthumb
     direction 0.707107 -6.34976e-011 0.707107   
     length 0.662154   
     axis -90 45 -5.4397e-014   XYZ
    dof rx rz
    limits (-45.0 45.0)
           (-45.0 45.0)
  end
  begin
     id 24 
     name rclavicle
     direction -0.890242 0.443271 0.104786   
     length 3.46753  
     axis 0 0 0   XYZ 
    dof ry rz
    limits (-10.0 20.0)
           (-20.0 0.0)
  end
  begin
     id 25 
     name rhumerus
     direction -1 -4.48963e-011 -5.41723e-018  
     length 5.8094   
     axis 180 30 90   XYZ
    dof rx ry rz
    limits (-90.0 60.0)
           (-90.0 90.0)
           (-90.0 90.0)
  end
  begin
     id 26 
     name rradius
     direction -1 -4.48958e-011 -6.51059e-027   
     length 3.66953   
     axis 180 30 90   XYZ
    dof rx
    limits (-10.0 170.0)
  end
  begin
     id 27 
     name rwrist
     direction -1 -4.48975e-011 -1.74124e-026   
     length 1.83476   
     axis 1.04567e-014 -90 -90   XYZ
    dof ry
    limits (-180.0 0.0)
  end
  begin
     id 28
     name rhand
     direction -1 -4.49013e-011 -3.48326e-026   
     length 0.57843   
     axis 2.22196e-014 -90 -90   XYZ
    dof rx rz
    limits (-90.0 90.0)
           (-45.0 45.0)
  end
  begin
     id 29
     name rfingers
     direction -1 -4.49023e-011 -6.9669e-026   
     length 0.466345   
     axis 4.44383e-014 -90 -90   XYZ
    dof rx
    limits (0.0 90.0)
  end
  begin
     id 30
     name rthumb
     direction -0.707107 -6.34926e-011 0.707107   
     length 0.669581   
     axis -90 -45 5.4397e-014   XYZ
    dof rx rz
    limits (-45.0 45.0)
           (-45.0 45.0)
  end
:hierarchy
  begin
    root lhipjoint rhipjoint lowerback
    lhipjoint lfemur
    lfemur ltibia
    ltibia lfoot
    lfoot ltoes
    rhipjoint rfemur
    rfemur rtibia
    rtibia rfoot
    rfoot rtoes
    lowerback upperback
    upperback thorax
    thorax lowerneck lclavicle rclavicle
    lowerneck upperneck
    upperneck head
    lclavicle lhumerus
    lhumerus lradius
    lradius lwrist
    lwrist lhand lthumb
    lhand lfingers
    rclavicle rhumerus
    rhumerus rradius
    rradius rwrist
    rwrist rhand rthumb
    rhand rfingers
  end

#!OML:ASF H:\SkateBoarding\Project 1\Capture day 1\Session 1\Skater.ASF
:FULLY-SPECIFIED
:DEGREES
253
root 1.10849 18.4831 1.8413 1.28181 12.8151 -0.174789
lowerback 10.8012 -1.02034 -4.24755
upperback 0.362923 -1.84796 0.496477
thorax -5.53214 -0.791104 3.19804
lowerneck -15.1835 -2.39099 -0.768118
upperneck 27.7092 -2.94655 -0.750438
head 11.5403 -1.48949 -0.562333
rclavicle 1.87603e-014 5.96354e-016
rhumerus -32.2029 -8.53488 -85.2947
rradius 28.858
rwrist -3.17152
rhand -29.5326 -10.7156
rfingers 7.12502
rthumb -2.86604 -40.6761
lclavicle 1.87603e-014 5.96354e-016
lhumerus -34.4166 -5.7907 93.472
lradius 31.2238
lwrist 17.9923
lhand -19.669 14.515
lfingers 7.12502
lthumb 6.65931 44.3903
rfemur -35.5412 8.43343 11.114
rtibia 55.5849
rfoot -8.24879 22.061
rtoes 0.677249
lfemur 1.65245 -22.5434 -22.4439
ltibia 18.3497
lfoot -30.7987 2.62231
ltoes -13.5336
254
root 1.11427 18.484 1.85808 1.46162 12.7443 -0.170337
lowerback 10.8811 -1.00949 -4.26155
upperback 0.379737 -1.83873 0.491483
thorax -5.55974 -0.785698 3.20151
lowerneck -15.2341 -2.39204 -0.767901
upperneck 27.5781 -2.94251 -0.766746
head 11.4997 -1.49029 -0.567012
rclavicle 4.35835e-014 1.98785e-015
rhumerus -32.2428 -8.40094 -85.3708
rradius 29.035
rwrist -3.31398
rhand -29.4704 -10.739
rfingers 7.12502
rthumb -2.80603 -40.7003
lclavicle 4.35835e-014 1.98785e-015
lhumerus -34.5618 -5.85699 93.3638
lradius 31.4691
lwrist 18.1665
lhand -19.6562 14.5924
lfingers 7.12502
lthumb 6.67169 44.4673
rfemur -35.7206 8.44948 11.0802
rtibia 55.6172
rfoot -8.24629 22.099
rtoes 0.677277
lfemur 1.54452 -22.6194 -22.4295
ltibia 18.3097
lfoot -30.8886 2.7453
ltoes -13.54
255
root 1.11992 18.485 1.87504 1.64686 12.6725 -0.168731
lowerback 10.9627 -0.996948 -4.27026
upperback 0.398159 -1.82664 0.486652
thorax -5.58704 -0.779056 3.20174
lowerneck -15.2914 -2.39604 -0.771436
upperneck 27.4485 -2.94136 -0.783849
head 11.4611 -1.49283 -0.571864
rclavicle 1.717e-014 -1.98785e-016
rhumerus -32.2782 -8.26376 -85.448
rradius 29.2075
rwrist -3.44841
rhand -29.4315 -10.7185
rfingers 7.12502
rthumb -2.76844 -40.6803
lclavicle 1.717e-014 -1.98785e-016
lhumerus -34.7091 -5.92512 93.2529
lradius 31.7283
lwrist 18.3354
lhand -19.6291 14.6805
lfingers 7.12502
lthumb 6.69787 44.5545
rfemur -35.9071 8.46325 11.0492
rtibia 55.6507
rfoot -8.24495 22.1372
rtoes 0.667643
lfemur 1.43006 -22.7084 -22.4116
ltibia 18.2731
lfoot -30.9926 2.87509
ltoes -13.5496
256
root 1.12541 18.4858 1.89217 1.83709 12.5979 -0.168543
lowerback 11.0481 -0.9825 -4.27481
upperback 0.4169 -1.81174 0.480889
thorax -5.61646 -0.77109 3.19829
lowerneck -15.3512 -2.40394 -0.778532
upperneck 27.3207 -2.94488 -0.800526
head 11.424 -1.49775 -0.576668
rclavicle 1.9133e-014 -5.1684e-015
rhumerus -32.3138 -8.12326 -85.5284
rradius 29.3768
rwrist -3.57915
rhand -29.4288 -10.6465
rfingers 7.12502
rthumb -2.76579 -40.6083
lclavicle 1.9133e-014 -5.1684e-015
lhumerus -34.8597 -5.99091 93.1359
lradius 31.9979
lwrist 18.4944
lhand -19.5628 14.7602
lfingers 7.12502
lthumb 6.76191 44.6322
rfemur -36.1012 8.47372 11.02
rtibia 55.6868
rfoot -8.24392 22.1761
rtoes 0.656184
lfemur 1.30943 -22.8092 -22.3919
ltibia 18.2411
lfoot -31.112 3.00959
ltoes -13.5569
257
root 1.13083 18.4866 1.9095 2.03209 12.5214 -0.166006
lowerback 11.1357 -0.964953 -4.27661
upperback 0.43599 -1.79269 0.471389
thorax -5.64731 -0.761173 3.18876
lowerneck -15.4053 -2.41741 -0.792198
upperneck 27.1902 -2.95643 -0.810719
head 11.385 -1.50615 -0.578982
rclavicle 4.47762e-014 -1.37161e-014
rhumerus -32.3533 -7.98002 -85.6129
rradius 29.5449
rwrist -3.70972
rhand -29.4401 -10.5589
rfingers 7.12502
rthumb -2.77671 -40.5206
lclavicle 4.47762e-014 -1.37161e-014
lhumerus -35.0181 -6.06211 93.015
lradius 32.2825
lwrist 18.658
lhand -19.4672 14.8497
lfingers 7.12502
lthumb 6.85416 44.7188
rfemur -36.3025 8.47877 10.9884
rtibia 55.7259
rfoot -8.24155 22.2169
rtoes 0.632677
lfemur 1.18407 -22.9197 -22.3749
ltibia 18.2132
lfoot -31.2428 3.14912
ltoes -13.5621
258
root 1.1362 18.4871 1.92701 2.23067 12.4411 -0.163332
lowerback 11.2257 -0.944788 -4.27536
upperback 0.458351 -1.76983 0.461467
thorax -5.67644 -0.749569 3.17643
lowerneck -15.4573 -2.43645 -0.818805
upperneck 27.0533 -2.97442 -0.813423
head 11.3436 -1.51784 -0.577156
rclavicle 2.20899e-014 -4.17448e-015
rhumerus -32.3892 -7.83402 -85.6987
rradius 29.7076
rwrist -3.83453
rhand -29.4701 -10.4503
rfingers 7.12502
rthumb -2.80576 -40.4116
lclavicle 2.20899e-014 -4.17448e-015
lhumerus -35.1764 -6.13369 92.8927
lradius 32.5786
lwrist 18.8321
lhand -19.3347 14.9269
lfingers 7.12502
lthumb 6.98207 44.7918
rfemur -36.51 8.47809 10.9574
rtibia 55.7684
rfoot -8.23478 22.2628
rtoes 0.603742
lfemur 1.05534 -23.038 -22.3585
ltibia 18.1881
lfoot -31.3858 3.29265
ltoes -13.5622
259
root 1.14144 18.4875 1.94476 2.43345 12.3583 -0.1575
lowerback 11.3158 -0.922444 -4.27556
upperback 0.484578 -1.74422 0.450791
thorax -5.70175 -0.736748 3.16358
lowerneck -15.5158 -2.45747 -0.852456
upperneck 26.9162 -2.99383 -0.813623
head 11.3036 -1.53053 -0.573521
rclavicle -1.24489e-014 -7.7526e-015
rhumerus -32.4203 -7.68231 -85.7857
rradius 29.867
rwrist -3.9554
rhand -29.5104 -10.34
rfingers 7.12502
rthumb -2.84461 -40.3008
lclavicle -1.24489e-014 -7.7526e-015
lhumerus -35.3345 -6.20405 92.7698
lradius 32.8878
lwrist 19.026
lhand -19.1713 15.0144
lfingers 7.12502
lthumb 7.13976 44.874
rfemur -36.7237 8.47084 10.9242
rtibia 55.8144
rfoot -8.22291 22.3126
rtoes 0.572852
lfemur 0.924645 -23.1632 -22.345
ltibia 18.1627
lfoot -31.5368 3.43942
ltoes -13.5562
260
root 1.14654 18.4878 1.96289 2.63956 12.273 -0.148408
lowerback 11.4055 -0.896226 -4.27792
upperback 0.513102 -1.71375 0.439038
thorax -5.72475 -0.721594 3.14993
lowerneck -15.5629 -2.48324 -0.89938
upperneck 26.7682 -3.01965 -0.802123
head 11.2579 -1.54601 -0.563967
rclavicle 6.11263e-015 6.16232e-015
rhumerus -32.4507 -7.52859 -85.872
rradius 30.0201
rwrist -4.07543
rhand -29.5628 -10.2225
rfingers 7.12502
rthumb -2.89525 -40.1825
lclavicle 6.11263e-015 6.16232e-015
lhumerus -35.4971 -6.28425 92.6516
lradius 33.21
lwrist 19.2535
lhand -18.9944 15.1051
lfingers 7.12502
lthumb 7.31058 44.9589
rfemur -36.9416 8.45793 10.8885
rtibia 55.8633
rfoot -8.20489 22.3688
rtoes 0.546325
lfemur 0.794343 -23.2917 -22.3342
ltibia 18.1347
lfoot -31.6937 3.5839
ltoes -13.5377
261
root 1.15139 18.488 1.98144 2.84845 12.1878 -0.134195
lowerback 11.4961 -0.867271 -4.28444
upperback 0.544152 -1.68028 0.425267
thorax -5.74571 -0.704985 3.13594
lowerneck -15.6059 -2.51201 -0.953845
upperneck 26.6166 -3.04893 -0.785755
head 11.2104 -1.56317 -0.551758
rclavicle 6.36111e-015 -2.18663e-014
rhumerus -32.4748 -7.37263 -85.9574
rradius 30.1638
rwrist -4.18513
rhand -29.6174 -10.1031
rfingers 7.12502
rthumb -2.94802 -40.0625
lclavicle 6.36111e-015 -2.18663e-014
lhumerus -35.6657 -6.3741 92.5361
lradius 33.547
lwrist 19.5172
lhand -18.8094 15.1985
lfingers 7.12502
lthumb 7.48915 45.0459
rfemur -37.1617 8.43789 10.8493
rtibia 55.915
rfoot -8.1812 22.431
rtoes 0.5247
lfemur 0.666089 -23.4176 -22.3262
ltibia 18.1006
lfoot -31.8488 3.72486
ltoes -13.5138
262
root 1.15601 18.4883 2.00048 3.06116 12.1036 -0.114598
lowerback 11.5862 -0.835511 -4.29491
upperback 0.576841 -1.64372 0.409221
thorax -5.76491 -0.686852 3.12117
lowerneck -15.6448 -2.54137 -1.00938
upperneck 26.4623 -3.07944 -0.766613
head 11.1612 -1.58061 -0.538452
rclavicle 5.561e-014 1.51076e-014
rhumerus -32.4939 -7.21707 -86.0412
rradius 30.2971
rwrist -4.28255
rhand -29.6767 -9.96928
rfingers 7.12502
rthumb -3.00521 -39.9279
lclavicle 5.561e-014 1.51076e-014
lhumerus -35.8385 -6.47476 92.4265
lradius 33.8942
lwrist 19.8126
lhand -18.6405 15.3111
lfingers 7.12502
lthumb 7.65213 45.1527
rfemur -37.3844 8.41055 10.8056
rtibia 55.9693
rfoot -8.15132 22.4995
rtoes 0.512336
lfemur 0.539137 -23.5407 -22.321
ltibia 18.0597
lfoot -32.0001 3.86161
ltoes -13.4872
263
root 1.16042 18.4885 2.02 3.2774 12.0229 -0.0904774
lowerback 11.6759 -0.801747 -4.30871
upperback 0.611155 -1.60499 0.391571
thorax -5.7822 -0.667671 3.10611
lowerneck -15.6812 -2.57086 -1.06484
upperneck 26.3076 -3.10986 -0.748111
head 11.1116 -1.59802 -0.525354
rclavicle 1.04362e-014 3.57812e-015
rhumerus -32.5011 -7.06119 -86.1227
rradius 30.4114
rwrist -4.36917
rhand -29.7422 -9.8243
rfingers 7.12502
rthumb -3.06846 -39.782
lclavicle 1.04362e-014 3.57812e-015
lhumerus -36.0143 -6.58401 92.3224
lradius 34.2485
lwrist 20.1308
lhand -18.4915 15.4263
lfingers 7.12502
lthumb 7.79601 45.2626
rfemur -37.6088 8.37125 10.7588
rtibia 56.0261
rfoot -8.11312 22.5755
rtoes 0.507621
lfemur 0.412264 -23.6576 -22.3163
ltibia 18.0129
lfoot -32.1441 3.98757
ltoes -13.4544
264
root 1.16457 18.4886 2.03994 3.49751 11.947 -0.0634446
lowerback 11.7655 -0.76666 -4.32446
upperback 0.646076 -1.56483 0.373084
thorax -5.79888 -0.64778 3.09094
lowerneck -15.7112 -2.59909 -1.11487
upperneck 26.1507 -3.1387 -0.734136
head 11.0598 -1.61471 -0.514471
rclavicle 2.87741e-014 -2.38542e-015
rhumerus -32.4994 -6.90398 -86.202
rradius 30.5123
rwrist -4.45354
rhand -29.8033 -9.68947
rfingers 7.12502
rthumb -3.1275 -39.6463
lclavicle 2.87741e-014 -2.38542e-015
lhumerus -36.1931 -6.70077 92.2235
lradius 34.6061
lwrist 20.4557
lhand -18.3627 15.5297
lfingers 7.12502
lthumb 7.92026 45.3613
rfemur -37.8363 8.31812 10.7107
rtibia 56.0855
rfoot -8.06676 22.6587
rtoes 0.510192
lfemur 0.281017 -23.7644 -22.3085
ltibia 17.9645
lfoot -32.2773 4.10199
ltoes -13.424
265
root 1.16855 18.4887 2.06025 3.72146 11.8784 -0.0363969
lowerback 11.8548 -0.730809 -4.3386
upperback 0.680862 -1.52346 0.354735
thorax -5.81564 -0.627338 3.07471
lowerneck -15.7358 -2.62539 -1.15852
upperneck 25.9936 -3.16471 -0.726696
head 11.0068 -1.63024 -0.506551
rclavicle -8.99501e-015 2.28602e-014
rhumerus -32.4899 -6.74948 -86.2767
rradius 30.5976
rwrist -4.53117
rhand -29.8429 -9.57165
rfingers 7.12502
rthumb -3.16578 -39.5279
lclavicle -8.99501e-015 2.28602e-014
lhumerus -36.3744 -6.82408 92.1311
lradius 34.964
lwrist 20.7783
lhand -18.2549 15.6042
lfingers 7.12502
lthumb 8.02433 45.4318
rfemur -38.0666 8.25087 10.6639
rtibia 56.147
rfoot -8.01693 22.7471
rtoes 0.508996
lfemur 0.142488 -23.8628 -22.2945
ltibia 17.918
lfoot -32.3993 4.20288
ltoes -13.3959
266
root 1.17236 18.4886 2.08082 3.94873 11.8174 -0.0138604
lowerback 11.9477 -0.695542 -4.34515
upperback 0.713742 -1.48207 0.337125
thorax -5.8366 -0.606937 3.05501
lowerneck -15.7546 -2.65072 -1.20096
upperneck 25.8385 -3.18896 -0.72183
head 10.9535 -1.64513 -0.499448
rclavicle 1.44616e-014 3.75703e-014
rhumerus -32.4757 -6.59881 -86.3482
rradius 30.6723
rwrist -4.60825
rhand -29.879 -9.46753
rfingers 7.12502
rthumb -3.20058 -39.4233
lclavicle 1.44616e-014 3.75703e-014
lhumerus -36.5541 -6.94449 92.0416
lradius 35.3124
lwrist 21.0731
lhand -18.169 15.6546
lfingers 7.12502
lthumb 8.1072 45.479
rfemur -38.3004 8.1687 10.6237
rtibia 56.2102
rfoot -7.96296 22.8392
rtoes 0.503888
lfemur -0.00728184 -23.9478 -22.2681
ltibia 17.8779
lfoot -32.5087 4.28812
ltoes -13.377
267
root 1.17599 18.4885 2.10179 4.17914 11.7652 0.00457374
lowerback 12.0419 -0.661795 -4.34576
upperback 0.746589 -1.44185 0.321644
thorax -5.85822 -0.587225 3.03431
lowerneck -15.7724 -2.6724 -1.23262
upperneck 25.6845 -3.20765 -0.72896
head 10.9 -1.65787 -0.497698
rclavicle -2.18663e-014 -4.17448e-015
rhumerus -32.4538 -6.44435 -86.4166
rradius 30.7348
rwrist -4.68438
rhand -29.8936 -9.40557
rfingers 7.12502
rthumb -3.21469 -39.3611
lclavicle -2.18663e-014 -4.17448e-015
lhumerus -36.7307 -7.05799 91.9544
lradius 35.6519
lwrist 21.331
lhand -18.1074 15.6891
lfingers 7.12502
lthumb 8.16665 45.5112
rfemur -38.537 8.07403 10.5895
rtibia 56.2747
rfoot -7.90938 22.9332
rtoes 0.49161
lfemur -0.168191 -24.0197 -22.23
ltibia 17.8457
lfoot -32.6047 4.3565
ltoes -13.3638
